<svg version="1.1" xmlns="http://www.w3.org/2000/svg" xmlns:xlink="http://www.w3.org/1999/xlink" width="120" height="52.287" viewBox="0,0,120,52.287"><defs><linearGradient x1="584.5025" y1="360.0002" x2="695.4957" y2="360.0002" gradientUnits="userSpaceOnUse" id="color-1"><stop offset="0" stop-color="#ff0f0f"/><stop offset="1" stop-color="#ff9494"/></linearGradient></defs><g transform="translate(-580,-333.8565)"><g stroke="none" stroke-miterlimit="10"><path d="M700,359.9995c0,14.416 -11.729,26.144 -26.144,26.144h-67.713c-14.415,0 -26.143,-11.727 -26.143,-26.144c0,-14.415 11.727,-26.143 26.143,-26.143h67.713c14.415,0 26.144,11.728 26.144,26.143z" fill="#752727"/><path d="M695.496,359.9995c0,11.952 -9.688,21.641 -21.64,21.641h-67.713c-11.952,0 -21.641,-9.689 -21.641,-21.641v0c0,-11.951 9.689,-21.64 21.641,-21.64h67.713c11.952,0 21.64,9.689 21.64,21.64z" fill="url(#color-1)"/><text transform="translate(615.94238,366) scale(0.5,0.5)" font-size="40" xml:space="preserve" fill="#ffffff" font-family="&quot;Bauhaus 93&quot;, Marker" font-weight="normal" text-anchor="start"><tspan x="0" dy="0">Reset</tspan></text></g></g></svg>